<svg viewBox="0 0 560 360" fill="none" xmlns="http://www.w3.org/2000/svg" role="img" aria-label="Ilustrasi dashboard Kasir Mini">
  <rect width="560" height="360" rx="28" fill="#F7F8FB"/>
  <rect x="24" y="24" width="512" height="312" rx="18" fill="#fff" stroke="#E7EBF1" stroke-width="2"/>
  <!-- sidebar -->
  <rect x="24" y="24" width="96" height="312" rx="18" fill="#D32F2F"/>
  <rect x="44" y="48" width="56" height="12" rx="4" fill="#fff" fill-opacity=".9"/>
  <rect x="44" y="88" width="56" height="8" rx="3" fill="#fff" fill-opacity=".35"/>
  <rect x="44" y="108" width="56" height="8" rx="3" fill="#fff" fill-opacity=".55"/>
  <rect x="44" y="128" width="56" height="8" rx="3" fill="#fff" fill-opacity=".35"/>
  <rect x="44" y="148" width="56" height="8" rx="3" fill="#fff" fill-opacity=".35"/>
  <!-- topbar -->
  <rect x="140" y="44" width="160" height="14" rx="4" fill="#1D2433"/>
  <rect x="140" y="66" width="90" height="8" rx="3" fill="#FFCDD2"/>
  <!-- stat cards -->
  <rect x="140" y="96" width="110" height="70" rx="12" fill="#FFF5F5" stroke="#FFCDD2"/>
  <rect x="152" y="110" width="36" height="8" rx="2" fill="#D32F2F"/>
  <rect x="152" y="128" width="70" height="18" rx="4" fill="#B71C1C"/>
  <rect x="264" y="96" width="110" height="70" rx="12" fill="#fff" stroke="#E7EBF1"/>
  <rect x="276" y="110" width="36" height="8" rx="2" fill="#738096"/>
  <rect x="276" y="128" width="60" height="18" rx="4" fill="#EF5350"/>
  <rect x="388" y="96" width="110" height="70" rx="12" fill="#fff" stroke="#E7EBF1"/>
  <rect x="400" y="110" width="36" height="8" rx="2" fill="#738096"/>
  <rect x="400" y="128" width="50" height="18" rx="4" fill="#FFCDD2"/>
  <!-- chart panel -->
  <rect x="140" y="184" width="230" height="128" rx="14" fill="#fff" stroke="#E7EBF1"/>
  <rect x="156" y="200" width="80" height="10" rx="3" fill="#1D2433"/>
  <rect x="168" y="260" width="18" height="32" rx="3" fill="#FFCDD2"/>
  <rect x="196" y="240" width="18" height="52" rx="3" fill="#EF5350"/>
  <rect x="224" y="228" width="18" height="64" rx="3" fill="#D32F2F"/>
  <rect x="252" y="248" width="18" height="44" rx="3" fill="#B71C1C"/>
  <rect x="280" y="214" width="18" height="78" rx="3" fill="#D32F2F"/>
  <rect x="308" y="236" width="18" height="56" rx="3" fill="#EF5350"/>
  <!-- list panel -->
  <rect x="388" y="184" width="110" height="128" rx="14" fill="#FFF8F8" stroke="#FFCDD2"/>
  <rect x="402" y="200" width="60" height="8" rx="2" fill="#D32F2F"/>
  <rect x="402" y="220" width="82" height="6" rx="2" fill="#FFCDD2"/>
  <rect x="402" y="236" width="70" height="6" rx="2" fill="#FFCDD2"/>
  <rect x="402" y="252" width="76" height="6" rx="2" fill="#FFCDD2"/>
  <rect x="402" y="268" width="54" height="6" rx="2" fill="#EF5350"/>
</svg>
