<svg viewBox="0 0 320 200" fill="none" xmlns="http://www.w3.org/2000/svg" role="img" aria-label="Mockup dashboard ringkas">
  <rect width="320" height="200" rx="16" fill="#FFF5F5"/>
  <rect x="14" y="14" width="90" height="172" rx="12" fill="#D32F2F"/>
  <rect x="28" y="32" width="60" height="10" rx="3" fill="#fff"/>
  <rect x="28" y="58" width="60" height="8" rx="3" fill="#fff" fill-opacity=".35"/>
  <rect x="28" y="74" width="60" height="8" rx="3" fill="#fff" fill-opacity=".55"/>
  <rect x="28" y="90" width="60" height="8" rx="3" fill="#fff" fill-opacity=".35"/>
  <rect x="118" y="14" width="90" height="72" rx="12" fill="#fff" stroke="#E7EBF1"/>
  <rect x="130" y="28" width="40" height="8" rx="2" fill="#738096"/>
  <rect x="130" y="46" width="56" height="22" rx="4" fill="#D32F2F"/>
  <rect x="218" y="14" width="88" height="72" rx="12" fill="#fff" stroke="#E7EBF1"/>
  <rect x="230" y="28" width="40" height="8" rx="2" fill="#738096"/>
  <rect x="230" y="46" width="48" height="22" rx="4" fill="#EF5350"/>
  <rect x="118" y="100" width="188" height="86" rx="12" fill="#fff" stroke="#E7EBF1"/>
  <rect x="134" y="148" width="14" height="24" rx="2" fill="#FFCDD2"/>
  <rect x="156" y="136" width="14" height="36" rx="2" fill="#EF5350"/>
  <rect x="178" y="124" width="14" height="48" rx="2" fill="#D32F2F"/>
  <rect x="200" y="132" width="14" height="40" rx="2" fill="#B71C1C"/>
  <rect x="222" y="118" width="14" height="54" rx="2" fill="#D32F2F"/>
</svg>
